<svg width="26" height="16" viewBox="0 0 26 16" fill="none" xmlns="http://www.w3.org/2000/svg">
<path d="M23.0691 0.910925H16.7368V2.67199H23.0941L23.0691 0.910925ZM21.7327 13.0261C21.2523 13.3444 20.685 13.5058 20.109 13.4882C19.7278 13.5279 19.3424 13.4886 18.977 13.3725C18.6117 13.2564 18.2742 13.0662 17.9858 12.8137C17.4525 12.2091 17.1748 11.4209 17.2114 10.6155H25.4797C25.5393 9.7769 25.4676 8.9341 25.2673 8.11756C25.0736 7.34072 24.7346 6.60757 24.2682 5.95682C23.7987 5.32559 23.1923 4.8089 22.4946 4.44555C21.7183 4.06279 20.8621 3.87014 19.9966 3.88351C19.1827 3.87754 18.3758 4.03468 17.6236 4.34563C16.9348 4.63601 16.3106 5.06059 15.7876 5.59461C15.266 6.13931 14.8621 6.78554 14.601 7.49307C14.3209 8.25689 14.1812 9.06509 14.1889 9.87863C14.176 10.7037 14.3114 11.5244 14.5885 12.3017C14.8239 13.0055 15.1976 13.6552 15.6876 14.2126C16.1946 14.7598 16.8177 15.1866 17.5112 15.4616C18.2844 15.7562 19.1068 15.9003 19.9342 15.8862C21.095 15.9224 22.2411 15.6185 23.2315 15.0119C24.2318 14.3011 24.952 13.2628 25.2673 12.0768H22.5071C22.3593 12.4692 22.0874 12.8025 21.7327 13.0261ZM17.4487 7.88025C17.5459 7.56886 17.7073 7.28128 17.9224 7.03605C18.1375 6.79081 18.4016 6.59336 18.6977 6.45641C19.0898 6.27991 19.5168 6.19451 19.9467 6.20662C20.2572 6.18009 20.5698 6.22106 20.863 6.3267C21.1562 6.43233 21.423 6.60014 21.6453 6.81862C22.0697 7.33811 22.342 7.96492 22.4321 8.62964H17.2489C17.2691 8.37583 17.3151 8.12473 17.3863 7.88025H17.4487ZM10.8416 7.28074C11.4773 7.01604 12.0296 6.5845 12.4403 6.03176C12.8178 5.44474 13.0053 4.75571 12.9773 4.05836C13.0018 3.42243 12.8778 2.78953 12.6151 2.20987C12.3945 1.70767 12.0402 1.27566 11.591 0.960884C11.1147 0.633617 10.5738 0.412159 10.0048 0.311412C9.33134 0.170169 8.64446 0.103157 7.95643 0.111575H0.5V15.8238H8.1188C8.8141 15.8243 9.50662 15.7362 10.1796 15.5615C10.8175 15.3965 11.4219 15.1218 11.9657 14.7497C12.4924 14.3846 12.9213 13.8956 13.2147 13.3258C13.5393 12.6886 13.6982 11.9798 13.6768 11.265C13.7004 10.3791 13.452 9.50732 12.9649 8.76703C12.441 8.02254 11.6641 7.49421 10.7791 7.28074H10.8416ZM3.95968 2.79689H7.19455C7.49174 2.79652 7.78842 2.82159 8.08133 2.87183C8.35105 2.9118 8.61007 3.00522 8.84321 3.14661C9.06846 3.27402 9.25098 3.46523 9.36778 3.69616C9.51244 3.97308 9.58138 4.2833 9.56762 4.59543C9.59089 4.86425 9.54978 5.13476 9.4477 5.38454C9.34562 5.63432 9.1855 5.85618 8.9806 6.03176C8.53361 6.33905 7.99875 6.49249 7.45684 6.4689H3.95968V2.79689ZM10.0048 12.0893C9.87644 12.3439 9.68239 12.5595 9.44272 12.7138C9.19331 12.869 8.91848 12.9789 8.63088 13.0386C8.31122 13.1101 7.98421 13.1436 7.65668 13.1385H3.90972V8.82948H7.65668C8.29967 8.80132 8.93466 8.98087 9.4677 9.34157C9.70852 9.55768 9.89507 9.82746 10.0122 10.1291C10.1294 10.4307 10.1739 10.7556 10.1422 11.0777C10.1759 11.421 10.1289 11.7674 10.0048 12.0893Z" fill="#1E1E1E"/>
</svg>
