<svg width="26" height="26" viewBox="0 0 26 26" fill="none" xmlns="http://www.w3.org/2000/svg">
<path d="M12.9984 0.5C6.09688 0.5 0.500007 6.2382 0.500007 13.3168C0.497187 16.0033 1.32112 18.6227 2.85537 20.8049C4.38961 22.9871 6.55658 24.6217 9.05 25.4778C9.675 25.5958 9.90313 25.2001 9.90313 24.8602C9.90313 24.5554 9.89219 23.7496 9.88594 22.6805C6.40938 23.4544 5.675 20.9619 5.675 20.9619C5.10782 19.4811 4.2875 19.0869 4.2875 19.0869C3.15157 18.2922 4.37188 18.3082 4.37188 18.3082C5.62657 18.3992 6.28594 19.6295 6.28594 19.6295C7.40157 21.5874 9.2125 21.0225 9.925 20.6938C10.0375 19.8656 10.3609 19.3007 10.7188 18.98C7.94375 18.6561 5.025 17.5566 5.025 12.6466C5.025 11.2472 5.5125 10.103 6.3125 9.20623C6.18282 8.8823 5.75469 7.5786 6.43438 5.81533C6.43438 5.81533 7.48438 5.47066 9.87188 7.12861C10.8918 6.84395 11.9442 6.69907 13.0016 6.69776C14.0589 6.69991 15.1113 6.84532 16.1312 7.1302C18.5172 5.47225 19.5656 5.81693 19.5656 5.81693C20.2469 7.58179 19.8187 8.8839 19.6906 9.20783C20.4922 10.1046 20.975 11.2487 20.975 12.6482C20.975 17.571 18.0531 18.6545 15.2687 18.972C15.7172 19.3678 16.1172 20.1497 16.1172 21.3448C16.1172 23.0586 16.1016 24.4405 16.1016 24.8602C16.1016 25.2033 16.3266 25.6022 16.9609 25.4762C19.4519 24.6181 21.6162 22.9829 23.1483 20.8012C24.6804 18.6195 25.503 16.0016 25.5 13.3168C25.5 6.2382 19.9031 0.5 12.9984 0.5Z" fill="#1E1E1E"/>
</svg>
