<svg width="26" height="26" viewBox="0 0 26 26" fill="none" xmlns="http://www.w3.org/2000/svg">
<path d="M23.6514 0.500175H2.34859C2.10913 0.496869 1.87135 0.540484 1.64885 0.628528C1.42635 0.716572 1.22347 0.847321 1.05181 1.01331C0.880145 1.17929 0.74306 1.37727 0.64838 1.59592C0.5537 1.81457 0.50328 2.04963 0.5 2.28765V23.7123C0.50328 23.9504 0.5537 24.1854 0.64838 24.4041C0.74306 24.6227 0.880145 24.8207 1.05181 24.9867C1.22347 25.1527 1.42635 25.2834 1.64885 25.3715C1.87135 25.4595 2.10913 25.5031 2.34859 25.4998H23.6514C23.8909 25.5031 24.1286 25.4595 24.3511 25.3715C24.5737 25.2834 24.7765 25.1527 24.9482 24.9867C25.1199 24.8207 25.2569 24.6227 25.3516 24.4041C25.4463 24.1854 25.4967 23.9504 25.5 23.7123V2.28765C25.4967 2.04963 25.4463 1.81457 25.3516 1.59592C25.2569 1.37727 25.1199 1.17929 24.9482 1.01331C24.7765 0.847321 24.5737 0.716572 24.3511 0.628528C24.1286 0.540484 23.8909 0.496869 23.6514 0.500175ZM8.083 21.4249H4.31036V10.175H8.083V21.4249ZM6.19668 8.60006C5.67639 8.60006 5.1774 8.39462 4.8095 8.02893C4.4416 7.66324 4.23491 7.16725 4.23491 6.65009C4.23491 6.13292 4.4416 5.63694 4.8095 5.27125C5.1774 4.90556 5.67639 4.70012 6.19668 4.70012C6.47296 4.66897 6.75274 4.69618 7.0177 4.77997C7.28266 4.86375 7.52683 5.00222 7.73423 5.18631C7.94162 5.3704 8.10755 5.59595 8.22117 5.8482C8.33478 6.10045 8.39351 6.37371 8.39351 6.65009C8.39351 6.92646 8.33478 7.19972 8.22117 7.45197C8.10755 7.70423 7.94162 7.92978 7.73423 8.11387C7.52683 8.29795 7.28266 8.43642 7.0177 8.52021C6.75274 8.60399 6.47296 8.6312 6.19668 8.60006ZM21.6896 21.4249H17.917V15.3875C17.917 13.875 17.3763 12.8875 16.0055 12.8875C15.5813 12.8906 15.1682 13.0228 14.822 13.2665C14.4757 13.5101 14.2129 13.8533 14.0689 14.25C13.9705 14.5438 13.9279 14.8532 13.9432 15.1625V21.4124H10.1705C10.1705 21.4124 10.1705 11.1875 10.1705 10.1625H13.9432V11.75C14.2859 11.1589 14.7843 10.6719 15.3849 10.3415C15.9854 10.0111 16.6652 9.84986 17.3511 9.87504C19.8662 9.87504 21.6896 11.4875 21.6896 14.95V21.4249Z" fill="#1E1E1E"/>
</svg>
