<svg width="26" height="34" viewBox="0 0 26 34" fill="none" xmlns="http://www.w3.org/2000/svg">
<path d="M3.956 26.4663H16.8132V29.212H3.956V26.4663ZM20.5948 1.18547L23.3018 0.717346L25.5 13.3853L22.793 13.8554L20.5948 1.18547ZM4.06997 24.2254L4.32236 21.49L17.1246 22.6705L16.8722 25.4039L4.06997 24.2254ZM4.83933 18.3983L5.5517 15.7462L17.9672 19.0842L17.2549 21.7362L4.83933 18.3983ZM7.1189 11.7773L8.51311 9.41229L19.5874 15.9457L18.1932 18.3087L7.1189 11.7773ZM12.7934 4.94473L15.0628 3.39788L22.3066 14.0223L20.0372 15.5692L12.7934 4.94473Z" fill="#1E1E1E"/>
<path d="M18.818 31.2473H2.53533V21.0707H0.5V33.2827H20.8533V21.0707H18.818V31.2473Z" fill="#1E1E1E"/>
</svg>
